<?xml version="1.0" standalone="no"?><!DOCTYPE svg PUBLIC "-//W3C//DTD SVG 1.1//EN" "http://www.w3.org/Graphics/SVG/1.1/DTD/svg11.dtd"><svg class="icon" width="128px" height="117.34px" viewBox="0 0 1117 1024" version="1.1" xmlns="http://www.w3.org/2000/svg"><path fill="#ffffff" d="M192.107334 481.494472h55.585536c16.419828 0 24.652999 8.093626 24.652999 24.280878v54.748265c0 16.187252-8.233171 24.280878-24.652999 24.280878H192.060818c-16.419828 0-24.652999-8.093626-24.652999-24.280878v-54.748265c0-16.187252 8.233171-24.280878 24.652999-24.280878z m193.921422 0h55.632051c16.419828 0 24.652999 8.093626 24.652999 24.280878v54.748265c0 16.187252-8.233171 24.280878-24.652999 24.280878H386.028756c-16.419828 0-24.652999-8.093626-24.652999-24.280878v-54.748265c0-16.187252 8.233171-24.280878 24.652999-24.280878z m193.967937 0h55.632051c16.419828 0 24.652999 8.093626 24.652999 24.280878v54.748265c0 16.187252-8.233171 24.280878-24.652999 24.280878h-55.632051c-16.419828 0-24.652999-8.093626-24.652999-24.280878v-54.748265c0-16.187252 8.233171-24.280878 24.652999-24.280878z m-387.935875-140.940732h55.632052c16.419828 0 24.652999 8.093626 24.652999 24.280879V419.675913c0 16.187252-8.233171 24.280878-24.652999 24.280879H192.060818c-16.419828 0-24.652999-8.093626-24.652999-24.280879V364.788104c0-16.187252 8.233171-24.280878 24.652999-24.280879z m193.967938 0h55.632051c16.419828 0 24.652999 8.093626 24.652999 24.280879V419.675913c0 16.187252-8.233171 24.280878-24.652999 24.280879H386.028756c-16.419828 0-24.652999-8.093626-24.652999-24.280879V364.788104c0-16.187252 8.233171-24.280878 24.652999-24.280879z m193.967937 0h55.632051c16.419828 0 24.652999 8.093626 24.652999 24.280879V419.675913c0 16.187252-8.233171 24.280878-24.652999 24.280879h-55.632051c-16.419828 0-24.652999-8.093626-24.652999-24.280879V364.788104c0-16.187252 8.233171-24.280878 24.652999-24.280879z"  /><path fill="#ffffff" d="M1039.612326 439.305283V262.036264c0-28.467237-11.535743-55.818111-31.955869-75.912632a109.96168 109.96168 0 0 0-77.028994-31.490718h-339.095027V108.024791c0-9.582109 3.860753-18.792098 10.744987-25.583301a37.119044 37.119044 0 0 1 26.048452-10.651956h86.657618a36.700408 36.700408 0 0 0 26.885723-9.67514 35.677076 35.677076 0 0 0 11.303168-25.908906 35.211925 35.211925 0 0 0-11.303168-25.908907 36.281772 36.281772 0 0 0-26.885723-9.675139h-86.704134c-28.885873 0-56.608868 11.349683-77.028993 31.490718a106.705623 106.705623 0 0 0-32.002384 75.912631v46.608123h-410.263119c-28.839358 0-56.608868 11.349683-77.028994 31.490718A106.705623 106.705623 0 0 0 0 262.036264v537.574928c0 28.467237 11.535743 55.771596 31.955869 75.866116 20.466641 20.141035 48.143121 31.490718 77.028994 31.490718H690.749129a224.807444 224.807444 0 0 0 83.262016 85.448226 229.319408 229.319408 0 0 0 115.915612 31.490718C1014.773266 1023.90697 1116.362229 923.853005 1116.362229 800.820584v-194.386573c0-31.630263-6.837719-62.888406-20.09452-91.681248a222.900325 222.900325 0 0 0-56.655383-75.44748zM108.984863 835.799934a37.072529 37.072529 0 0 1-25.955422-10.605441 35.956167 35.956167 0 0 1-10.791502-25.583301V262.036264c0-9.628624 3.907268-18.838613 10.791502-25.583301a37.072529 37.072529 0 0 1 25.955422-10.651957h821.6426c9.76817 0 19.071188 3.860753 25.955422 10.605441a36.002682 36.002682 0 0 1 10.791502 25.583302v134.893769a229.784559 229.784559 0 0 0-113.124706-10.698472V364.788104a24.094818 24.094818 0 0 0-7.20984-17.16407 24.83906 24.83906 0 0 0-17.396644-7.116809H774.011145a24.83906 24.83906 0 0 0-17.443159 7.116809 24.141333 24.141333 0 0 0-7.20984 17.16407V419.675913c0 3.535147 0.790757 7.023779 2.325755 10.233321a223.505021 223.505021 0 0 0-64.981585 78.145356c-15.349981 30.606931-23.257546 64.283858-23.304061 98.379421v39.444799H192.572485a25.304211 25.304211 0 0 0-17.722251 7.256355 24.559969 24.559969 0 0 0-7.3959 17.489674v30.467386c0 6.512113 2.65136 12.838166 7.3959 17.44316 4.651509 4.651509 11.070592 7.256354 17.722251 7.256355h470.82577v75.075359c0 11.721803 0.930302 23.397092 2.790905 34.97935H108.984863z m935.139427-34.97935a150.801931 150.801931 0 0 1-45.677821 106.519563 155.45344 155.45344 0 0 1-108.566227 44.049793c-40.700706 0-79.680354-15.815132-108.566227-44.003278a150.801931 150.801931 0 0 1-45.677821-106.519563v-194.433088c-0.18606-20.048005 3.674692-39.956465 11.349682-58.515987 7.67499-18.606037 18.978158-35.537531 33.351322-49.771149 14.326649-14.233618 31.397688-25.583301 50.189785-33.258291a156.290712 156.290712 0 0 1 168.849787 33.258291 149.918144 149.918144 0 0 1 44.65449 108.287136v194.433088z"  /><path fill="#ffffff" d="M892.438572 525.730325a36.467833 36.467833 0 0 0-25.583301 10.419381 35.351471 35.351471 0 0 0-10.605441 25.164665v66.051432a35.118895 35.118895 0 0 0 9.814684 26.513603 36.095712 36.095712 0 0 0 26.327543 11.163622 36.700408 36.700408 0 0 0 26.281027-11.163622 35.584046 35.584046 0 0 0 9.814685-26.513603v-66.051432a35.351471 35.351471 0 0 0-10.558926-25.11815 36.421318 36.421318 0 0 0-25.490271-10.465896z"  /></svg>